<svg width="277" height="48" viewBox="0 0 277 48" fill="none" xmlns="http://www.w3.org/2000/svg">
<path d="M61.6534 39H56.9943L67.4631 9.90909H72.5341L83.0028 39H78.3438L70.1193 15.1932H69.892L61.6534 39ZM62.4347 27.608H77.5483V31.3011H62.4347V27.608ZM91.593 9.90909V39H87.2038V9.90909H91.593ZM112.96 9.90909V39H108.571V9.90909H112.96ZM119.352 9.90909H124.679L133.94 32.5227H134.281L143.543 9.90909H148.869V39H144.693V17.9489H144.423L135.844 38.9574H132.378L123.798 17.9347H123.528V39H119.352V9.90909ZM174.938 19.0994C174.664 18.2377 174.294 17.4659 173.83 16.7841C173.376 16.0928 172.831 15.5057 172.197 15.0227C171.562 14.5303 170.838 14.1562 170.023 13.9006C169.219 13.6449 168.333 13.517 167.367 13.517C165.729 13.517 164.252 13.9384 162.935 14.7812C161.619 15.6241 160.577 16.8598 159.81 18.4886C159.053 20.108 158.674 22.0919 158.674 24.4403C158.674 26.7983 159.058 28.7917 159.825 30.4205C160.592 32.0492 161.643 33.285 162.978 34.1278C164.313 34.9706 165.833 35.392 167.538 35.392C169.119 35.392 170.497 35.0701 171.671 34.4261C172.855 33.7822 173.769 32.8731 174.413 31.6989C175.066 30.5152 175.393 29.1231 175.393 27.5227L176.529 27.7358H168.205V24.1136H179.64V27.4233C179.64 29.8665 179.119 31.9877 178.077 33.7869C177.045 35.5767 175.615 36.9593 173.788 37.9347C171.969 38.91 169.886 39.3977 167.538 39.3977C164.905 39.3977 162.594 38.7917 160.606 37.5795C158.627 36.3674 157.083 34.6487 155.975 32.4233C154.867 30.1884 154.313 27.5369 154.313 24.4688C154.313 22.1487 154.635 20.0653 155.279 18.2188C155.923 16.3722 156.827 14.8049 157.992 13.517C159.166 12.2197 160.544 11.2301 162.126 10.5483C163.717 9.85701 165.454 9.51136 167.339 9.51136C168.911 9.51136 170.374 9.74337 171.728 10.2074C173.092 10.6714 174.304 11.3295 175.364 12.1818C176.434 13.0341 177.32 14.0473 178.021 15.2216C178.721 16.3864 179.195 17.679 179.441 19.0994H174.938ZM215.485 19.0994C215.21 18.2377 214.841 17.4659 214.377 16.7841C213.923 16.0928 213.378 15.5057 212.744 15.0227C212.109 14.5303 211.385 14.1562 210.57 13.9006C209.765 13.6449 208.88 13.517 207.914 13.517C206.276 13.517 204.799 13.9384 203.482 14.7812C202.166 15.6241 201.124 16.8598 200.357 18.4886C199.6 20.108 199.221 22.0919 199.221 24.4403C199.221 26.7983 199.604 28.7917 200.371 30.4205C201.138 32.0492 202.19 33.285 203.525 34.1278C204.86 34.9706 206.38 35.392 208.085 35.392C209.666 35.392 211.044 35.0701 212.218 34.4261C213.402 33.7822 214.316 32.8731 214.96 31.6989C215.613 30.5152 215.94 29.1231 215.94 27.5227L217.076 27.7358H208.752V24.1136H220.187V27.4233C220.187 29.8665 219.666 31.9877 218.624 33.7869C217.592 35.5767 216.162 36.9593 214.335 37.9347C212.516 38.91 210.433 39.3977 208.085 39.3977C205.452 39.3977 203.141 38.7917 201.153 37.5795C199.174 36.3674 197.63 34.6487 196.522 32.4233C195.414 30.1884 194.86 27.5369 194.86 24.4688C194.86 22.1487 195.182 20.0653 195.826 18.2188C196.47 16.3722 197.374 14.8049 198.539 13.517C199.713 12.2197 201.091 11.2301 202.673 10.5483C204.263 9.85701 206.001 9.51136 207.886 9.51136C209.458 9.51136 210.921 9.74337 212.275 10.2074C213.638 10.6714 214.851 11.3295 215.911 12.1818C216.981 13.0341 217.867 14.0473 218.567 15.2216C219.268 16.3864 219.742 17.679 219.988 19.0994H215.485ZM225.759 39V9.90909H243.997V13.6875H230.148V22.5511H243.045V26.3153H230.148V35.2216H244.168V39H225.759ZM273.34 9.90909V39H269.306L254.519 17.6648H254.249V39H249.86V9.90909H253.923L268.724 31.2727H268.994V9.90909H273.34Z" fill="black"/>
<circle cx="24" cy="24" r="24" fill="black"/>
<circle cx="24" cy="24" r="18.9474" fill="white"/>
<circle cx="24" cy="24" r="12.6316" fill="black"/>
</svg>
